# xmcd
#
# Track frame offsets: 
#        225
#        20922
#        42157
#        52062
#        67072
#        80675
#        99187
#        109849
#        120195
#        134644
#        151788
#        166956
#        184082
#        205261
#        223114
#        234286
#        252380
#        275168
#        289914
#        306881
#
# Disc length: 4287 seconds
#
# Revision: 1
# Processed by: cddbd v1.5.2PL0 Copyright (c) Steve Scherf et al.
# Submitted via: ExactAudioCopyFreeDBPlugin 1.0
#
DISCID=2c10bc14
DTITLE=Diverse - Black Music - Greatest Songs Performed By Black Artis
DTITLE=ts CD1
DYEAR=2000
DGENRE=Blues
TTITLE0=Ralph Carter - Extra Extra
TTITLE1=Luther Vandros - Papillon
TTITLE2=First Choice - Gotta Get Away
TTITLE3=Carol Douglas - Running Out Of Things To Say
TTITLE4=Creme D'Cocoa - Sweet Dream Lady
TTITLE5=Philly Groove Orchestra - Guess What Mary Jones Did
TTITLE6=Patti La Belle and The Blue Belles - C'est La Vie
TTITLE7=Johnny Maestro and The Brooklin Bridge - Blessed Is The Rain
TTITLE8=5th Dimension - Since I Fell For You
TTITLE9=Gladys Knight - You Got My Word On That
TTITLE10=Chamber Brothers - Good Vibrations
TTITLE11=Whatnauts - To See You Cry
TTITLE12=Valerie Ford - Midnight Train To Georgia
TTITLE13=Martha Reeves - You´Ve Lost That Loving Feeling
TTITLE14=Three Degrees - Yours
TTITLE15=Dionne Warwick - The Need To Be
TTITLE16=Cecile Holmes - Killing Me Softly With His Song
TTITLE17=Vanessa Willians - One Of A Kind
TTITLE18=Persuassions - Our Day Will Come
TTITLE19=Chaka Khan - I Know You, I Love You
EXTD=
EXTT0=
EXTT1=
EXTT2=
EXTT3=
EXTT4=
EXTT5=
EXTT6=
EXTT7=
EXTT8=
EXTT9=
EXTT10=
EXTT11=
EXTT12=
EXTT13=
EXTT14=
EXTT15=
EXTT16=
EXTT17=
EXTT18=
EXTT19=
PLAYORDER=
